 <svg version="1.0" xmlns="http://www.w3.org/2000/svg" class="changeColor" width="700.000000pt" height="326.000000pt" viewBox="0 0 700.000000 376.000000" preserveAspectRatio="xMidYMid meet">
<metadata>
Created by potrace 1.12, written by Peter Selinger 2001-2015
</metadata>
<g transform="translate(0.000000,376.000000) scale(0.100000,-0.100000)" fill="#fff" stroke="none">
<path d="M3406 3752 l-39 -3 6 -125 c4 -71 3 -124 -2 -124 -5 0 -11 4 -13 9
-1 5 -46 59 -98 121 -94 110 -94 111 -135 108 l-40 -3 1 -70 c1 -38 5 -134 9
-212 l7 -143 43 0 c24 0 46 3 48 8 2 4 0 61 -4 127 -4 66 -5 122 -2 125 3 3
11 -4 19 -14 8 -11 56 -69 106 -129 91 -107 93 -108 128 -102 19 4 37 9 39 11
6 6 -20 409 -27 414 -4 3 -25 4 -46 2z"></path>
<path d="M3794 3735 c-9 -23 -41 -400 -35 -408 4 -4 25 -8 47 -10 l39 -2 5 50
c7 70 12 75 68 68 140 -16 236 92 184 210 -27 60 -76 83 -206 94 -70 6 -99 6
-102 -2z m206 -110 c24 -22 26 -53 4 -83 -13 -19 -24 -22 -75 -22 l-59 0 0 53
c0 29 6 59 13 66 17 17 92 8 117 -14z"></path>
<path d="M2723 3691 c-177 -45 -238 -244 -114 -372 108 -111 291 -83 364 56
42 80 21 201 -45 261 -52 48 -139 71 -205 55z m104 -101 c62 -38 87 -108 60
-173 -42 -99 -185 -101 -231 -3 -32 68 -8 144 55 178 43 23 76 23 116 -2z"></path>
<path d="M4308 3649 c-14 -19 -73 -105 -131 -192 -105 -158 -106 -158 -81
-168 48 -18 70 -11 98 31 14 22 30 40 34 40 4 0 41 -6 82 -14 77 -15 100 -31
100 -71 0 -34 22 -54 65 -57 30 -2 39 0 37 11 -54 255 -95 428 -101 434 -4 4
-24 10 -43 13 -31 6 -38 3 -60 -27z m59 -156 c6 -32 9 -62 6 -66 -4 -7 -57 -2
-91 9 -8 2 -1 21 24 59 20 30 40 55 44 55 4 0 11 -26 17 -57z"></path>
<path d="M2265 3577 c-77 -23 -145 -45 -152 -50 -14 -9 5 -77 22 -77 7 0 34 7
61 15 27 8 51 11 54 7 4 -4 23 -68 44 -142 52 -190 46 -180 95 -167 26 7 41
17 41 27 0 8 -20 82 -44 163 l-44 149 34 14 c18 8 38 14 44 14 6 0 20 4 30 10
16 8 17 14 7 45 -13 44 -16 44 -192 -8z"></path>
<path d="M4690 3596 c0 -3 -27 -93 -60 -200 -33 -108 -60 -197 -60 -200 0 -9
71 -28 84 -23 7 3 16 18 19 34 3 15 10 40 16 55 10 27 10 27 52 13 58 -21 137
-19 175 4 57 35 81 128 49 191 -23 45 -59 67 -165 99 -101 32 -110 34 -110 27z
m147 -131 c40 -17 56 -45 43 -79 -17 -46 -59 -55 -132 -27 l-27 10 15 48 c9
26 18 54 20 61 4 14 21 11 81 -13z"></path>
<path d="M1860 3441 c-109 -38 -178 -156 -151 -256 57 -214 294 -238 439 -44
9 12 5 32 -24 100 -19 46 -37 85 -39 87 -2 3 -152 -56 -164 -64 -5 -4 7 -46
18 -63 8 -12 15 -11 50 3 41 16 41 16 53 -8 14 -33 6 -52 -34 -76 -48 -29
-109 -27 -149 7 -33 28 -59 78 -59 114 0 73 81 137 159 124 37 -6 38 -6 50 35
7 23 10 44 7 47 -15 16 -105 12 -156 -6z"></path>
<path d="M5031 3269 c-46 -106 -79 -194 -75 -199 5 -5 71 -36 146 -68 147 -65
152 -65 163 -6 6 28 4 30 -90 68 -52 21 -97 42 -100 46 -5 8 22 80 30 80 3 0
43 -18 90 -39 l85 -40 14 22 c31 48 26 56 -64 94 -47 20 -87 38 -88 39 -9 6
21 74 32 74 7 0 54 -18 105 -40 51 -22 96 -38 100 -35 10 6 35 64 30 69 -6 6
-282 126 -289 126 -3 0 -43 -86 -89 -191z"></path>
<path d="M1483 3259 c-18 -12 -33 -25 -33 -30 0 -4 27 -52 59 -106 33 -54 56
-99 52 -101 -5 -2 -72 22 -150 54 l-141 56 -35 -22 c-19 -12 -35 -23 -35 -25
0 -7 211 -354 218 -358 4 -3 24 6 45 19 l37 24 -33 53 c-19 28 -50 77 -70 108
-20 31 -33 59 -30 63 3 3 17 -1 32 -8 55 -28 260 -106 278 -106 10 0 29 9 42
19 l24 18 -107 179 c-59 98 -110 180 -114 181 -4 2 -22 -7 -39 -18z"></path>
<path d="M5416 3093 c-65 -110 -102 -181 -96 -188 5 -5 22 -18 39 -28 l30 -18
32 56 c33 59 45 65 78 38 16 -14 22 -35 28 -98 8 -78 9 -79 48 -106 22 -15 43
-25 46 -21 3 4 3 42 0 85 -3 43 -4 80 -2 83 2 2 16 4 30 4 95 0 163 132 112
216 -17 28 -206 154 -231 154 -5 0 -56 -80 -114 -177z m200 31 c25 -15 52 -37
60 -50 14 -20 14 -26 -1 -53 -11 -23 -23 -31 -41 -31 -30 0 -124 48 -124 63 0
13 49 97 56 97 3 0 26 -12 50 -26z"></path>
<path d="M1041 2970 l-33 -28 126 -166 c70 -91 133 -166 140 -166 7 0 24 12
39 28 l26 27 -125 165 c-69 91 -129 166 -132 167 -4 1 -22 -11 -41 -27z"></path>
<path d="M852 2817 c-38 -39 -38 -44 -11 -149 11 -44 18 -83 14 -86 -3 -3 -49
4 -102 16 l-97 22 -36 -35 -35 -35 153 -152 152 -153 32 33 33 32 -95 95 c-52
52 -89 95 -81 95 7 0 51 -8 97 -17 46 -10 86 -15 89 -12 3 4 -4 46 -15 94 -11
48 -18 90 -15 93 3 3 45 -33 93 -81 48 -48 92 -87 98 -87 6 0 23 13 37 28 l28
29 -153 151 c-84 84 -153 152 -153 152 -1 0 -15 -15 -33 -33z"></path>
<path d="M6035 2809 c-16 -4 -47 -22 -68 -40 -86 -71 -109 -193 -52 -285 37
-59 106 -104 170 -111 l45 -6 0 47 c0 43 -2 46 -25 46 -66 0 -125 59 -125 125
0 81 81 154 155 141 40 -8 93 -56 101 -94 3 -15 7 -32 9 -38 2 -7 19 -8 47 -5
40 6 43 8 40 35 -14 128 -167 223 -297 185z"></path>
<path d="M3183 2789 c-55 -16 -93 -66 -231 -308 -112 -195 -132 -236 -120
-247 29 -28 401 -235 408 -227 5 4 97 161 204 347 108 187 210 355 228 373 18
18 47 39 65 45 18 7 33 16 33 20 0 11 -548 8 -587 -3z m487 -20 c0 -6 -12 -26
-27 -43 -16 -17 -113 -179 -217 -359 -141 -245 -193 -327 -207 -327 -20 0
-322 171 -352 200 -18 17 -15 24 84 196 171 300 182 314 249 335 42 12 470 11
470 -2z"></path>
<path d="M3777 2735 c-22 -7 -50 -24 -64 -37 -20 -19 -153 -231 -153 -244 0
-3 32 -59 70 -125 39 -67 70 -125 70 -130 0 -5 -11 -15 -25 -21 -14 -6 -25
-15 -25 -20 0 -4 80 -8 178 -8 158 0 181 2 194 18 25 29 180 304 174 309 -3 3
-18 -4 -34 -16 -35 -25 -30 -30 -106 104 -68 118 -88 142 -141 166 -47 22 -86
23 -138 4z m131 -39 c39 -21 64 -51 117 -146 27 -47 60 -98 74 -113 l26 -28
-24 -42 c-86 -152 -103 -177 -124 -182 -12 -3 -71 -5 -131 -3 l-109 3 -11 31
c-6 17 -37 77 -70 134 l-59 103 29 53 c50 92 98 158 133 181 39 27 107 31 149
9z"></path>
<path d="M6320 2454 c-145 -63 -176 -259 -59 -371 125 -118 329 -59 369 106
42 175 -146 336 -310 265z m144 -88 c51 -21 76 -60 76 -119 0 -44 -4 -54 -38
-87 -46 -46 -93 -58 -145 -36 -102 42 -100 187 3 238 42 22 60 22 104 4z"></path>
<path d="M353 2225 c-20 -31 -20 -35 -5 -48 15 -12 294 -200 329 -221 13 -7
173 221 173 247 0 17 -59 52 -70 41 -4 -5 -31 -44 -59 -86 -28 -43 -53 -78
-56 -78 -2 0 -63 41 -137 90 -73 50 -137 90 -143 90 -5 -1 -20 -16 -32 -35z"></path>
<path d="M4119 1992 c-103 -59 -194 -114 -203 -121 -19 -16 -25 -4 147 -300
l100 -173 136 4 c158 4 197 18 246 87 26 36 30 52 30 105 0 61 -2 65 -126 281
-69 120 -130 220 -135 222 -5 2 -93 -46 -195 -105z m314 -134 c133 -232 142
-260 107 -332 -37 -77 -63 -89 -214 -97 -72 -4 -138 -4 -146 1 -19 10 -240
390 -240 412 0 9 6 20 13 26 29 24 343 201 352 199 6 -2 63 -96 128 -209z"></path>
<path d="M240 2011 c-15 -30 -17 -41 -7 -49 7 -5 92 -48 190 -95 l178 -86 19
32 c11 18 20 37 20 44 0 9 -359 193 -376 193 -2 0 -13 -18 -24 -39z"></path>
<path d="M6750 2026 c-14 -7 -97 -41 -185 -76 -88 -36 -162 -66 -164 -67 -9
-6 23 -83 35 -83 7 0 36 9 64 20 28 11 55 18 60 15 5 -3 11 -19 15 -35 5 -25
-1 -41 -38 -94 l-45 -64 16 -46 c9 -25 21 -46 27 -46 5 0 29 30 53 65 43 66
60 77 81 51 34 -41 139 -20 186 36 38 45 33 101 -18 227 -23 58 -47 106 -52
107 -6 2 -21 -3 -35 -10z m21 -163 c10 -25 19 -55 19 -67 0 -32 -32 -58 -67
-54 -23 2 -33 13 -56 61 -15 31 -25 62 -21 68 9 14 87 48 97 42 5 -3 17 -25
28 -50z"></path>
<path d="M2540 1951 c0 -6 3 -11 8 -11 4 0 21 -9 39 -20 l32 -19 -87 -148
c-83 -142 -87 -151 -87 -208 0 -58 3 -65 114 -255 63 -107 128 -219 144 -247
16 -29 31 -53 34 -53 3 0 2 21 -1 48 -4 28 -2 64 6 89 18 56 290 523 306 523
7 0 21 -5 32 -12 28 -18 35 -3 13 29 -11 15 -52 85 -92 156 l-72 127 -179 0
c-98 0 -185 3 -194 6 -9 3 -16 1 -16 -5z m390 -74 c14 -21 44 -72 65 -112 l40
-74 -21 -23 c-16 -17 -245 -409 -302 -516 -4 -8 -11 -14 -15 -15 -5 -1 -56 81
-115 182 -135 234 -134 219 -24 413 45 79 82 151 82 160 0 8 3 18 7 22 4 3 63
5 132 4 l125 -3 26 -38z"></path>
<path d="M1393 1934 c-2 -5 -2 -59 -1 -120 l3 -109 90 0 c83 0 90 1 90 20 0
17 -8 21 -60 25 -52 4 -60 8 -60 25 0 17 8 20 53 23 47 3 52 5 52 27 0 22 -5
24 -52 27 -45 3 -53 6 -53 23 0 17 8 21 60 25 46 4 61 9 63 22 3 14 -9 17 -89
20 -58 2 -93 -1 -96 -8z"></path>
<path d="M1646 1929 c-19 -15 -26 -30 -26 -53 0 -40 21 -60 78 -76 32 -8 42
-16 40 -28 -4 -22 -44 -28 -75 -11 -20 11 -26 10 -41 -5 -16 -16 -16 -18 2
-31 50 -38 140 -28 165 17 25 45 6 78 -59 103 -85 32 -69 60 25 43 14 -2 21 3
23 18 2 17 -5 24 -29 33 -47 16 -73 14 -103 -10z"></path>
<path d="M4923 1935 c-18 -8 -33 -18 -33 -24 0 -12 20 -25 39 -26 10 0 14 -22
15 -90 1 -89 1 -90 26 -90 l25 0 0 120 c0 113 -1 120 -20 122 -11 2 -35 -4
-52 -12z"></path>
<path d="M5100 1943 c-35 -13 -50 -37 -50 -79 0 -35 5 -47 24 -60 14 -8 40
-15 58 -14 48 3 50 2 38 -20 -12 -22 -58 -28 -76 -10 -7 7 -16 4 -28 -9 -16
-18 -16 -20 6 -35 45 -32 118 -15 143 33 8 17 15 55 15 86 0 49 -4 60 -29 86
-29 28 -63 36 -101 22z m77 -59 c9 -24 -10 -49 -37 -49 -27 0 -46 25 -37 49 4
10 18 16 37 16 19 0 33 -6 37 -16z"></path>
<path d="M5352 1942 c-72 -2 -83 -5 -80 -20 2 -13 16 -18 56 -20 28 -2 52 -6
52 -10 0 -4 -22 -46 -49 -94 -27 -48 -46 -89 -43 -93 3 -3 15 -5 28 -5 18 0
33 19 78 104 54 100 65 131 49 138 -5 2 -45 2 -91 0z"></path>
<path d="M5562 1942 c-72 -2 -83 -5 -80 -20 2 -13 16 -18 56 -20 28 -2 52 -7
52 -12 0 -5 -22 -47 -49 -93 -27 -47 -47 -88 -43 -91 3 -3 16 -6 28 -6 19 0
33 19 78 104 54 99 65 131 49 138 -5 2 -45 2 -91 0z"></path>
<path d="M1822 1918 c2 -18 10 -22 38 -23 l35 0 3 -98 c3 -95 3 -98 25 -95 21
3 22 9 27 98 l5 95 33 3 c24 2 32 8 32 23 0 18 -8 19 -101 19 -98 0 -100 -1
-97 -22z"></path>
<path d="M137 1822 c-3 -4 -8 -26 -12 -49 l-6 -41 125 -67 c69 -36 126 -70
126 -74 0 -4 -62 -13 -137 -19 -75 -7 -142 -17 -149 -23 -6 -5 -14 -24 -16
-41 -5 -34 4 -42 160 -128 45 -25 82 -48 82 -52 0 -5 -12 -8 -27 -9 -16 -1
-79 -6 -142 -13 l-114 -11 -13 -43 c-10 -35 -10 -44 0 -48 15 -6 420 41 435
50 15 10 24 66 12 80 -6 7 -61 42 -121 77 -60 35 -110 66 -110 69 0 3 61 13
136 22 75 9 140 20 145 25 4 4 10 24 11 42 l3 35 -165 98 c-206 123 -218 130
-223 120z"></path>
<path d="M2054 1745 c-10 -25 4 -47 28 -43 17 2 24 11 26 31 3 23 0 27 -23 27
-14 0 -28 -7 -31 -15z"></path>
<path d="M6739 1521 c-91 -15 -172 -30 -180 -33 -11 -4 -14 -17 -11 -47 l4
-42 67 3 c64 3 66 2 69 -22 12 -94 57 -162 121 -181 53 -16 111 2 150 46 27
31 31 43 31 93 0 31 -5 92 -12 135 l-11 77 -31 -1 c-17 -1 -106 -14 -197 -28z
m167 -137 c5 -45 3 -55 -15 -73 -26 -26 -65 -27 -89 -3 -21 21 -38 100 -24
114 11 11 104 27 114 19 4 -3 10 -29 14 -57z"></path>
<path d="M4545 1414 c-72 -60 -63 -59 -400 -59 l-310 0 3 38 c2 20 0 37 -5 37
-4 0 -49 -73 -100 -161 l-92 -160 92 -164 c51 -90 95 -164 100 -165 4 0 7 20
7 45 l0 45 180 0 c193 0 214 4 256 52 11 12 75 118 141 233 66 116 131 227
143 248 26 44 25 44 -15 11z m-83 -106 c-5 -19 -172 -308 -200 -347 -39 -53
-67 -59 -268 -62 -99 -1 -185 1 -191 4 -17 11 -113 185 -113 206 0 16 51 111
105 196 12 19 22 20 341 18 261 -2 328 -5 326 -15z"></path>
<path d="M2895 1305 c-87 -137 -110 -188 -109 -245 1 -63 20 -107 64 -144 51
-43 87 -47 350 -44 l245 3 0 238 0 238 -259 2 -259 2 -32 -50z m533 -184 c2
-142 -1 -208 -9 -217 -9 -11 -58 -14 -243 -14 -265 0 -294 7 -339 77 -51 79
-46 115 38 264 l56 99 247 -2 247 -3 3 -204z"></path>
<path d="M2195 468 c-9 -30 -95 -364 -95 -370 0 -5 17 -8 39 -8 l38 0 24 88
c14 53 32 96 46 110 26 26 33 27 59 8 19 -14 19 -16 -4 -103 -12 -48 -22 -91
-22 -95 0 -5 17 -8 38 -8 l39 0 27 103 c30 116 27 143 -20 173 -22 15 -32 16
-67 7 -23 -7 -43 -10 -46 -8 -2 2 4 25 13 51 8 25 13 50 10 55 -8 14 -74 11
-79 -3z"></path>
<path d="M1826 428 c-7 -18 -11 -37 -8 -41 2 -5 27 -7 56 -5 30 2 50 -1 50 -7
-1 -6 -18 -70 -38 -143 -20 -73 -36 -135 -36 -138 0 -3 19 -4 42 -2 l42 3 36
137 c19 75 39 140 43 144 4 4 29 7 56 5 53 -3 55 -1 66 47 l7 32 -151 0 -151
0 -14 -32z"></path>
<path d="M3025 448 c-2 -7 -23 -83 -45 -168 -23 -85 -43 -163 -46 -173 -5 -16
0 -18 37 -15 41 3 44 5 54 43 15 59 19 62 92 67 38 3 83 13 101 22 43 22 72
71 72 121 0 82 -52 115 -180 115 -56 0 -82 -4 -85 -12z m148 -67 c47 -18 46
-71 -3 -96 -28 -15 -91 -20 -102 -10 -7 8 12 86 25 103 11 14 46 16 80 3z"></path>
<path d="M2550 358 c-78 -40 -117 -129 -86 -201 18 -44 53 -68 109 -74 48 -6
117 18 117 40 0 23 -33 47 -50 37 -26 -17 -76 -11 -95 10 -23 26 -14 29 95 32
82 3 85 4 94 30 14 39 -3 97 -35 120 -41 31 -97 33 -149 6z m105 -78 c0 -22
-5 -25 -44 -28 -67 -5 -79 3 -50 34 18 19 32 24 59 22 30 -3 35 -7 35 -28z"></path>
<path d="M3473 360 c-27 -16 -33 -17 -33 -5 0 23 -77 21 -84 -2 -16 -54 -66
-245 -66 -253 0 -6 17 -10 38 -10 l38 0 22 76 c24 81 58 124 98 124 27 0 30 4
39 53 8 44 -3 47 -52 17z"></path>
<path d="M3630 358 c-62 -32 -90 -77 -90 -144 0 -42 5 -59 26 -83 30 -37 88
-56 138 -47 44 8 104 59 122 103 53 127 -71 235 -196 171z m110 -68 c11 -11
20 -29 20 -40 0 -29 -27 -78 -49 -90 -74 -39 -123 50 -65 119 30 36 65 40 94
11z"></path>
<path d="M3985 366 c-76 -35 -120 -141 -85 -207 24 -43 108 -63 146 -34 40 30
48 8 9 -30 -28 -29 -93 -34 -137 -11 -24 13 -28 12 -47 -8 -12 -12 -21 -25
-21 -29 0 -25 130 -52 190 -38 76 17 97 50 141 212 21 79 39 145 39 147 0 1
-18 2 -40 2 -29 0 -40 -4 -40 -15 0 -19 -9 -19 -31 1 -24 22 -88 27 -124 10z
m107 -73 c41 -37 -2 -113 -65 -113 -61 0 -76 46 -31 99 29 35 67 41 96 14z"></path>
<path d="M4399 353 c-32 -27 -32 -27 -27 -5 6 22 4 23 -35 20 l-41 -3 -33
-125 c-18 -69 -33 -131 -33 -138 0 -9 12 -12 37 -10 37 3 38 4 58 72 24 79 60
126 98 126 22 0 28 7 36 38 6 20 11 40 11 45 0 17 -41 5 -71 -20z"></path>
<path d="M4573 373 c-42 -6 -56 -24 -44 -56 9 -23 12 -24 51 -14 46 13 75 2
75 -27 0 -15 -11 -18 -73 -19 -67 -2 -76 -4 -98 -30 -34 -40 -33 -98 2 -126
31 -24 72 -27 100 -7 13 10 23 11 31 4 6 -5 27 -8 45 -6 33 3 33 3 57 98 27
105 24 141 -12 164 -25 17 -87 26 -134 19z m67 -183 c0 -43 -90 -68 -98 -27
-6 29 17 47 59 47 32 0 39 -3 39 -20z"></path>
<path d="M4955 371 c-3 -5 -30 -7 -59 -4 l-55 6 -11 -44 c-6 -24 -22 -85 -36
-135 -13 -51 -24 -94 -24 -98 0 -3 18 -6 40 -6 38 0 40 1 50 43 32 123 42 148
65 163 18 12 28 13 44 4 26 -13 26 -18 1 -108 -28 -100 -27 -104 17 -100 l37
3 27 94 c30 103 34 109 68 113 49 6 50 -33 5 -189 -6 -21 -3 -23 34 -23 40 0
42 1 52 43 6 23 18 64 26 91 20 71 18 103 -11 131 -29 30 -67 32 -119 5 -39
-19 -39 -19 -64 0 -26 21 -77 27 -87 11z"></path>
</g>
</svg>